# 3ds Max Wavefront OBJ Exporter v0.97b - (c)2007 guruware
# File Created: 24.04.2019 10:11:02

mtllib cube.mtl

#
# object Box001
#

v  -50.2344 0.0000 45.2341
v  -50.2344 0.0000 -54.7659
v  49.7656 0.0000 -54.7659
v  49.7656 0.0000 45.2341
v  -50.2344 100.0000 45.2341
v  49.7656 100.0000 45.2341
v  49.7656 100.0000 -54.7659
v  -50.2344 100.0000 -54.7659
# 8 vertices

vn -0.5774 -0.5774 0.5774
vn -0.5774 -0.5774 -0.5774
vn 0.5774 -0.5774 -0.5774
vn 0.5774 -0.5774 0.5774
vn -0.5774 0.5774 0.5774
vn 0.5774 0.5774 0.5774
vn 0.5774 0.5774 -0.5774
vn -0.5774 0.5774 -0.5774
# 8 vertex normals

vt 0.6659 0.0005 0.0000
vt 0.6659 0.3323 0.0000
vt 0.3341 0.3323 0.0000
vt 0.3341 0.0005 0.0000
vt 0.3341 0.3422 0.0000
vt 0.6659 0.3422 0.0000
vt 0.6659 0.6740 0.0000
vt 0.3341 0.6740 0.0000
vt 0.0005 0.6677 0.0000
vt 0.3323 0.6677 0.0000
vt 0.3323 0.9995 0.0000
vt 0.0005 0.9995 0.0000
vt 0.0005 0.0005 0.0000
vt 0.3323 0.0005 0.0000
vt 0.3323 0.3323 0.0000
vt 0.0005 0.3323 0.0000
vt 0.9995 0.3323 0.0000
vt 0.6677 0.3323 0.0000
vt 0.6677 0.0005 0.0000
vt 0.9995 0.0005 0.0000
vt 0.3323 0.6659 0.0000
vt 0.0005 0.6659 0.0000
vt 0.0005 0.3341 0.0000
vt 0.3323 0.3341 0.0000
# 24 texture coords

o Box001
g Box001
usemtl wire_108008136
s 2
f 1/1/1 2/2/2 3/3/3 4/4/4 
s 4
f 5/5/5 6/6/6 7/7/7 8/8/8 
s 8
f 1/9/1 4/10/4 6/11/6 5/12/5 
s 16
f 4/13/4 3/14/3 7/15/7 6/16/6 
s 32
f 3/17/3 2/18/2 8/19/8 7/20/7 
s 64
f 2/21/2 1/22/1 5/23/5 8/24/8 
# 6 polygons

